<svg xmlns="http://www.w3.org/2000/svg" style="display:none">
  <!-- Sprite de iconos UI. Usar con: <svg class="icon"><use href="assets/icons/sprite.svg#icon-NOMBRE"/></svg> -->

  <symbol id="icon-menu" viewBox="0 0 24 24" fill="none" stroke="currentColor" stroke-width="2" stroke-linecap="round">
    <line x1="3" y1="6" x2="21" y2="6"/><line x1="3" y1="12" x2="21" y2="12"/><line x1="3" y1="18" x2="21" y2="18"/>
  </symbol>

  <symbol id="icon-close" viewBox="0 0 24 24" fill="none" stroke="currentColor" stroke-width="2" stroke-linecap="round">
    <line x1="5" y1="5" x2="19" y2="19"/><line x1="19" y1="5" x2="5" y2="19"/>
  </symbol>

  <symbol id="icon-search" viewBox="0 0 24 24" fill="none" stroke="currentColor" stroke-width="2" stroke-linecap="round" stroke-linejoin="round">
    <circle cx="11" cy="11" r="7"/><line x1="21" y1="21" x2="16.65" y2="16.65"/>
  </symbol>

  <symbol id="icon-chevron-down" viewBox="0 0 24 24" fill="none" stroke="currentColor" stroke-width="2" stroke-linecap="round" stroke-linejoin="round">
    <polyline points="6 9 12 15 18 9"/>
  </symbol>

  <symbol id="icon-chevron-right" viewBox="0 0 24 24" fill="none" stroke="currentColor" stroke-width="2" stroke-linecap="round" stroke-linejoin="round">
    <polyline points="9 6 15 12 9 18"/>
  </symbol>

  <symbol id="icon-check" viewBox="0 0 24 24" fill="none" stroke="currentColor" stroke-width="2" stroke-linecap="round" stroke-linejoin="round">
    <polyline points="20 6 9 17 4 12"/>
  </symbol>

  <symbol id="icon-arrow-right" viewBox="0 0 24 24" fill="none" stroke="currentColor" stroke-width="2" stroke-linecap="round" stroke-linejoin="round">
    <line x1="5" y1="12" x2="19" y2="12"/><polyline points="12 5 19 12 12 19"/>
  </symbol>

  <symbol id="icon-quote" viewBox="0 0 24 24" fill="none" stroke="currentColor" stroke-width="2" stroke-linecap="round" stroke-linejoin="round">
    <path d="M9 5H4a1 1 0 0 0-1 1v3a4 4 0 0 0 4 4v6"/>
    <path d="M20 5h-5a1 1 0 0 0-1 1v3a4 4 0 0 0 4 4v6"/>
  </symbol>

  <symbol id="icon-trash" viewBox="0 0 24 24" fill="none" stroke="currentColor" stroke-width="2" stroke-linecap="round" stroke-linejoin="round">
    <polyline points="3 6 5 6 21 6"/>
    <path d="M19 6l-1 14a2 2 0 0 1-2 2H8a2 2 0 0 1-2-2L5 6"/>
    <path d="M10 11v6"/><path d="M14 11v6"/><path d="M9 6V4a1 1 0 0 1 1-1h4a1 1 0 0 1 1 1v2"/>
  </symbol>

  <symbol id="icon-phone" viewBox="0 0 24 24" fill="none" stroke="currentColor" stroke-width="2" stroke-linecap="round" stroke-linejoin="round">
    <path d="M22 16.92v3a2 2 0 0 1-2.18 2 19.79 19.79 0 0 1-8.63-3.07 19.5 19.5 0 0 1-6-6 19.79 19.79 0 0 1-3.07-8.67A2 2 0 0 1 4.11 2h3a2 2 0 0 1 2 1.72c.13.96.36 1.9.7 2.81a2 2 0 0 1-.45 2.11L8.09 9.91a16 16 0 0 0 6 6l1.27-1.27a2 2 0 0 1 2.11-.45c.9.34 1.85.57 2.81.7A2 2 0 0 1 22 16.92z"/>
  </symbol>

  <symbol id="icon-mail" viewBox="0 0 24 24" fill="none" stroke="currentColor" stroke-width="2" stroke-linecap="round" stroke-linejoin="round">
    <path d="M4 4h16v16H4z"/><polyline points="22 6 12 13 2 6"/>
  </symbol>

  <symbol id="icon-map-pin" viewBox="0 0 24 24" fill="none" stroke="currentColor" stroke-width="2" stroke-linecap="round" stroke-linejoin="round">
    <path d="M21 10c0 7-9 13-9 13s-9-6-9-13a9 9 0 0 1 18 0z"/><circle cx="12" cy="10" r="3"/>
  </symbol>

  <symbol id="icon-whatsapp" viewBox="0 0 24 24" fill="currentColor">
    <path d="M12.04 2C6.58 2 2.13 6.45 2.13 11.91c0 1.87.5 3.62 1.44 5.13L2 22l5.14-1.53a9.87 9.87 0 0 0 4.9 1.3h.01c5.46 0 9.9-4.45 9.9-9.91C21.96 6.45 17.5 2 12.04 2zm0 18.03h-.01a8.1 8.1 0 0 1-4.14-1.14l-.3-.18-3.05.91.92-2.98-.2-.31a8.08 8.08 0 0 1-1.26-4.33c0-4.48 3.65-8.13 8.14-8.13 2.17 0 4.21.85 5.75 2.39a8.06 8.06 0 0 1 2.38 5.75c0 4.48-3.65 8.13-8.13 8.13z"/>
  </symbol>

  <symbol id="icon-shield" viewBox="0 0 24 24" fill="none" stroke="currentColor" stroke-width="2" stroke-linecap="round" stroke-linejoin="round">
    <path d="M12 22s8-4 8-10V5l-8-3-8 3v7c0 6 8 10 8 10z"/>
  </symbol>

  <symbol id="icon-truck" viewBox="0 0 24 24" fill="none" stroke="currentColor" stroke-width="2" stroke-linecap="round" stroke-linejoin="round">
    <rect x="1" y="6" width="14" height="11"/><path d="M15 9h4l3 3v5h-7z"/><circle cx="6" cy="18" r="2"/><circle cx="17.5" cy="18" r="2"/>
  </symbol>

  <symbol id="icon-wrench" viewBox="0 0 24 24" fill="none" stroke="currentColor" stroke-width="2" stroke-linecap="round" stroke-linejoin="round">
    <path d="M14.7 6.3a4 4 0 1 1-5.4 5.4L3 18l3 3 6.3-6.3a4 4 0 0 1 5.4-5.4l-3 3-2-2z"/>
  </symbol>

  <symbol id="icon-building" viewBox="0 0 24 24" fill="none" stroke="currentColor" stroke-width="2" stroke-linecap="round" stroke-linejoin="round">
    <rect x="4" y="2" width="16" height="20"/><line x1="9" y1="7" x2="9" y2="7"/><line x1="15" y1="7" x2="15" y2="7"/>
    <line x1="9" y1="11" x2="9" y2="11"/><line x1="15" y1="11" x2="15" y2="11"/>
    <line x1="9" y1="15" x2="9" y2="15"/><line x1="15" y1="15" x2="15" y2="15"/>
    <line x1="10" y1="22" x2="10" y2="18"/><line x1="14" y1="22" x2="14" y2="18"/>
  </symbol>

  <symbol id="icon-flame" viewBox="0 0 24 24" fill="none" stroke="currentColor" stroke-width="2" stroke-linecap="round" stroke-linejoin="round">
    <path d="M12 2s-5 5.5-5 10a5 5 0 0 0 10 0c0-1.5-.7-2.5-1.3-3.4.1 1.5-.6 2.4-1.4 2.4-1 0-1.3-1-1-2 .4-1.4-.3-3-1.3-4z"/>
  </symbol>

  <symbol id="icon-snowflake" viewBox="0 0 24 24" fill="none" stroke="currentColor" stroke-width="2" stroke-linecap="round" stroke-linejoin="round">
    <line x1="12" y1="2" x2="12" y2="22"/><line x1="4.9" y1="6" x2="19.1" y2="18"/><line x1="4.9" y1="18" x2="19.1" y2="6"/>
  </symbol>

  <symbol id="icon-steel" viewBox="0 0 24 24" fill="none" stroke="currentColor" stroke-width="2" stroke-linecap="round" stroke-linejoin="round">
    <rect x="3" y="6" width="18" height="12" rx="1"/><line x1="3" y1="10" x2="21" y2="10"/><line x1="3" y1="14" x2="21" y2="14"/>
  </symbol>

  <symbol id="icon-star" viewBox="0 0 24 24" fill="currentColor">
    <polygon points="12 2 15.09 8.63 22 9.24 16.5 13.97 18.18 21 12 17.27 5.82 21 7.5 13.97 2 9.24 8.91 8.63"/>
  </symbol>

  <symbol id="icon-ruler" viewBox="0 0 24 24" fill="none" stroke="currentColor" stroke-width="2" stroke-linecap="round" stroke-linejoin="round">
    <path d="M2 12h20v6H2z"/><line x1="6" y1="12" x2="6" y2="15"/><line x1="10" y1="12" x2="10" y2="15"/><line x1="14" y1="12" x2="14" y2="15"/><line x1="18" y1="12" x2="18" y2="15"/>
  </symbol>

  <symbol id="icon-plus" viewBox="0 0 24 24" fill="none" stroke="currentColor" stroke-width="2" stroke-linecap="round">
    <line x1="12" y1="5" x2="12" y2="19"/><line x1="5" y1="12" x2="19" y2="12"/>
  </symbol>

  <symbol id="icon-minus" viewBox="0 0 24 24" fill="none" stroke="currentColor" stroke-width="2" stroke-linecap="round">
    <line x1="5" y1="12" x2="19" y2="12"/>
  </symbol>
</svg>
